<svg width="15" height="15" viewBox="0 0 15 15" fill="none" xmlns="http://www.w3.org/2000/svg">
<path d="M6.95923 0.845947C7.10891 0.385291 7.76072 0.385292 7.9104 0.845947L8.97974 4.13696C9.18055 4.755 9.75666 5.17407 10.4065 5.17407H13.8674C14.3518 5.17407 14.5532 5.79367 14.1614 6.07837L11.3616 8.11255C10.8359 8.49444 10.616 9.17137 10.8167 9.78931L11.886 13.0813C12.0357 13.5419 11.5083 13.9256 11.1165 13.6409L8.31665 11.6057C7.79096 11.2238 7.07867 11.2238 6.55298 11.6057L3.75317 13.6409C3.36132 13.9256 2.83397 13.542 2.98364 13.0813L4.05298 9.78931C4.25359 9.17137 4.03369 8.49444 3.50806 8.11255L0.708252 6.07837C0.316396 5.79367 0.517835 5.17407 1.0022 5.17407H4.46313C5.11297 5.17407 5.68908 4.755 5.88989 4.13696L6.95923 0.845947Z" fill="#007BFF" stroke="#007BFF"/>
</svg>
