<svg width="48" height="48" viewBox="0 0 48 48" fill="none" xmlns="http://www.w3.org/2000/svg">
<rect width="48" height="48" rx="10" fill="#007BFF"/>
<g clip-path="url(#clip0_34_985)">
<path d="M33.52 25.2533C33.5733 24.8533 33.6 24.44 33.6 24C33.6 23.5733 33.5733 23.1467 33.5067 22.7467L36.2133 20.64C36.4533 20.4533 36.52 20.0933 36.3733 19.8267L33.8133 15.4C33.6533 15.1067 33.32 15.0133 33.0267 15.1067L29.84 16.3867C29.1733 15.88 28.4667 15.4533 27.68 15.1333L27.2 11.7467C27.1467 11.4267 26.88 11.2 26.56 11.2H21.44C21.12 11.2 20.8666 11.4267 20.8133 11.7467L20.3333 15.1333C19.5467 15.4533 18.8267 15.8933 18.1733 16.3867L14.9866 15.1067C14.6933 15 14.36 15.1067 14.2 15.4L11.6533 19.8267C11.4933 20.1067 11.5467 20.4533 11.8133 20.64L14.52 22.7467C14.4533 23.1467 14.4 23.5867 14.4 24C14.4 24.4133 14.4267 24.8533 14.4933 25.2533L11.7867 27.36C11.5467 27.5467 11.48 27.9067 11.6267 28.1733L14.1867 32.6C14.3467 32.8933 14.68 32.9867 14.9733 32.8933L18.16 31.6133C18.8267 32.12 19.5333 32.5467 20.32 32.8667L20.8 36.2533C20.8667 36.5733 21.12 36.8 21.44 36.8H26.56C26.88 36.8 27.1467 36.5733 27.1867 36.2533L27.6667 32.8667C28.4533 32.5467 29.1733 32.12 29.8267 31.6133L33.0133 32.8933C33.3067 33 33.64 32.8933 33.8 32.6L36.36 28.1733C36.52 27.88 36.4533 27.5467 36.2 27.36L33.52 25.2533ZM24 28.8C21.36 28.8 19.2 26.64 19.2 24C19.2 21.36 21.36 19.2 24 19.2C26.64 19.2 28.8 21.36 28.8 24C28.8 26.64 26.64 28.8 24 28.8Z" fill="white"/>
</g>
<defs>
<clipPath id="clip0_34_985">
<rect width="32" height="32" fill="white" transform="translate(8 8)"/>
</clipPath>
</defs>
</svg>
