<svg width="19" height="19" viewBox="0 0 19 19" fill="none" xmlns="http://www.w3.org/2000/svg">
<path d="M17.7129 0.742414C18.2987 1.3282 18.2987 2.27795 17.7129 2.86373L12.5612 8.01551C11.9754 8.6013 11.9754 9.55105 12.5612 10.1368L17.7129 15.2886C18.2987 15.8744 18.2987 16.8241 17.7129 17.4099L17.4099 17.713C16.8241 18.2988 15.8744 18.2988 15.2886 17.713L10.1368 12.5612C9.55102 11.9754 8.60127 11.9754 8.01548 12.5612L2.86371 17.713C2.27792 18.2988 1.32817 18.2988 0.742386 17.713L0.43934 17.4099C-0.146447 16.8241 -0.146446 15.8744 0.439341 15.2886L5.59112 10.1368C6.1769 9.55105 6.1769 8.6013 5.59112 8.01551L0.439341 2.86373C-0.146445 2.27795 -0.146445 1.3282 0.43934 0.742414L0.742387 0.439367C1.32817 -0.14642 2.27792 -0.146419 2.86371 0.439368L8.01548 5.59114C8.60127 6.17693 9.55102 6.17693 10.1368 5.59115L15.2886 0.439368C15.8744 -0.146418 16.8241 -0.146418 17.4099 0.439368L17.7129 0.742414Z" fill="#343A40"/>
</svg>
