<svg width="32" height="32" viewBox="0 0 32 32" fill="none" xmlns="http://www.w3.org/2000/svg">
<path d="M12.984 24.7733V21.7156C12.984 20.9351 13.6549 20.3023 14.4826 20.3023H17.508C17.9055 20.3023 18.2866 20.4512 18.5677 20.7162C18.8487 20.9813 19.0066 21.3408 19.0066 21.7156V24.7733C19.0041 25.0978 19.139 25.4099 19.3814 25.6402C19.6239 25.8705 19.9537 26 20.2978 26H22.3619C23.3259 26.0023 24.2513 25.6428 24.9339 25.0008C25.6164 24.3588 26 23.487 26 22.5778V13.8669C26 13.1325 25.6548 12.4358 25.0575 11.9647L18.0358 6.67587C16.8144 5.74856 15.0643 5.7785 13.8794 6.74698L7.01791 11.9647C6.39236 12.4219 6.01848 13.1206 6 13.8669V22.5689C6 24.4638 7.62882 26 9.63808 26H11.655C12.3697 26 12.9505 25.4562 12.9557 24.7822L12.984 24.7733Z" fill="#495057"/>
</svg>
