<svg width="21" height="20" viewBox="0 0 21 20" fill="none" xmlns="http://www.w3.org/2000/svg">
<path d="M7.48398 18.7733V15.7156C7.48398 14.9351 8.15492 14.3023 8.98256 14.3023H12.008C12.4055 14.3023 12.7866 14.4512 13.0677 14.7162C13.3487 14.9813 13.5066 15.3408 13.5066 15.7156V18.7733C13.5041 19.0978 13.639 19.4099 13.8814 19.6402C14.1239 19.8705 14.4537 20 14.7978 20H16.8619C17.8259 20.0023 18.7513 19.6428 19.4339 19.0008C20.1164 18.3588 20.5 17.487 20.5 16.5778V7.86685C20.5 7.13246 20.1548 6.43584 19.5575 5.96467L12.5358 0.675869C11.3144 -0.251438 9.56433 -0.221498 8.37936 0.746979L1.51791 5.96467C0.892359 6.42195 0.518476 7.12063 0.5 7.86685V16.5689C0.5 18.4638 2.12882 20 4.13808 20H6.15504C6.86971 20 7.45052 19.4562 7.4557 18.7822L7.48398 18.7733Z" fill="#CED4DA"/>
</svg>
