<svg width="28" height="28" viewBox="0 0 28 28" fill="none" xmlns="http://www.w3.org/2000/svg">
<rect width="28" height="28" rx="14" fill="#66B2FF"/>
<path d="M14 6C14.8678 6 15.5712 6.70348 15.5713 7.57129V11.4287C15.5714 11.9809 16.0191 12.4286 16.5713 12.4287H20.4287C21.2965 12.4288 22 13.1322 22 14C22 14.8678 21.2965 15.5712 20.4287 15.5713H16.5713C16.0191 15.5714 15.5714 16.0191 15.5713 16.5713V20.4287C15.5712 21.2965 14.8678 22 14 22C13.1322 22 12.4288 21.2965 12.4287 20.4287V16.5713C12.4286 16.0191 11.9809 15.5714 11.4287 15.5713H7.57129C6.70348 15.5712 6 14.8678 6 14C6 13.1322 6.70348 12.4288 7.57129 12.4287H11.4287C11.9809 12.4286 12.4286 11.9809 12.4287 11.4287V7.57129C12.4288 6.70348 13.1322 6 14 6Z" fill="#E9F2FF" stroke="#E9F2FF"/>
</svg>
