<svg width="32" height="32" viewBox="0 0 32 32" fill="none" xmlns="http://www.w3.org/2000/svg">
<path d="M23.6462 16.9792C23.689 16.6667 23.7104 16.3438 23.7104 16C23.7104 15.6667 23.689 15.3333 23.6355 15.0208L25.8094 13.375C26.0021 13.2292 26.0557 12.9479 25.9379 12.7396L23.8818 9.28125C23.7533 9.05208 23.4855 8.97917 23.2499 9.05208L20.6905 10.0521C20.1551 9.65625 19.5875 9.32292 18.9557 9.07292L18.5701 6.42708C18.5273 6.17708 18.3131 6 18.0561 6H13.9439C13.6869 6 13.4834 6.17708 13.4406 6.42708L13.055 9.07292C12.4232 9.32292 11.8449 9.66667 11.3202 10.0521L8.76076 9.05208C8.52517 8.96875 8.25744 9.05208 8.12894 9.28125L6.08353 12.7396C5.95502 12.9583 5.99786 13.2292 6.21204 13.375L8.38595 15.0208C8.33241 15.3333 8.28957 15.6771 8.28957 16C8.28957 16.3229 8.31099 16.6667 8.36453 16.9792L6.19062 18.625C5.99786 18.7708 5.94431 19.0521 6.06211 19.2604L8.11823 22.7188C8.24673 22.9479 8.51446 23.0208 8.75005 22.9479L11.3095 21.9479C11.8449 22.3437 12.4125 22.6771 13.0443 22.9271L13.4299 25.5729C13.4834 25.8229 13.6869 26 13.9439 26H18.0561C18.3131 26 18.5273 25.8229 18.5594 25.5729L18.945 22.9271C19.5768 22.6771 20.1551 22.3437 20.6798 21.9479L23.2392 22.9479C23.4748 23.0312 23.7426 22.9479 23.8711 22.7188L25.9272 19.2604C26.0557 19.0312 26.0021 18.7708 25.7987 18.625L23.6462 16.9792ZM16 19.75C13.8796 19.75 12.1448 18.0625 12.1448 16C12.1448 13.9375 13.8796 12.25 16 12.25C18.1204 12.25 19.8552 13.9375 19.8552 16C19.8552 18.0625 18.1204 19.75 16 19.75Z" fill="#495057"/>
</svg>
