<svg width="24" height="24" viewBox="0 0 24 24" fill="none" xmlns="http://www.w3.org/2000/svg">
<g clip-path="url(#clip0_339_1114)">
<path d="M12 15C12.94 15 13.77 14.56 14.31 13.89L10.11 9.69C9.44 10.24 9 11.07 9 12C9 13.66 10.34 15 12 15Z" fill="#323232"/>
<path d="M10.4998 7.25C10.9798 7.1 11.4698 7 11.9998 7C14.7598 7 16.9998 9.24 16.9998 12C16.9998 12.53 16.8998 13.02 16.7498 13.5L19.7998 16.55C21.1998 15.32 22.3098 13.77 23.0098 12C21.2798 7.61 17.0098 4.5 12.0098 4.5C10.7298 4.5 9.49984 4.71 8.33984 5.09L10.5098 7.26L10.4998 7.25Z" fill="#323232"/>
<path d="M20.6198 19.37L3.88977 2.64L2.47977 4.05L5.14977 6.72C3.30977 8.04 1.84977 9.86 1.00977 12C2.73977 16.39 7.00977 19.5 12.0098 19.5C13.7498 19.5 15.3898 19.12 16.8798 18.44L19.2198 20.78L20.6298 19.37H20.6198ZM11.9998 17C9.23977 17 6.99977 14.76 6.99977 12C6.99977 11.02 7.28977 10.12 7.77977 9.35L14.6498 16.22C13.8798 16.71 12.9798 17 11.9998 17Z" fill="#323232"/>
<path d="M12.2695 9.03L14.9695 11.73C14.8395 10.29 13.7095 9.16 12.2695 9.03Z" fill="#323232"/>
</g>
<defs>
<clipPath id="clip0_339_1114">
<rect width="24" height="24" fill="white"/>
</clipPath>
</defs>
</svg>