<svg width="48" height="48" viewBox="0 0 48 48" fill="none" xmlns="http://www.w3.org/2000/svg">
<rect width="48" height="48" rx="10" fill="#007BFF"/>
<g clip-path="url(#clip0_34_977)">
<path d="M28.6667 26.6667H27.6133L27.24 26.3067C28.5467 24.7867 29.3333 22.8133 29.3333 20.6667C29.3333 15.88 25.4533 12 20.6667 12C15.88 12 12 15.88 12 20.6667C12 25.4533 15.88 29.3333 20.6667 29.3333C22.8133 29.3333 24.7867 28.5467 26.3067 27.24L26.6667 27.6133V28.6667L33.3333 35.32L35.32 33.3333L28.6667 26.6667ZM20.6667 26.6667C17.3467 26.6667 14.6667 23.9867 14.6667 20.6667C14.6667 17.3467 17.3467 14.6667 20.6667 14.6667C23.9867 14.6667 26.6667 17.3467 26.6667 20.6667C26.6667 23.9867 23.9867 26.6667 20.6667 26.6667Z" fill="white"/>
</g>
<defs>
<clipPath id="clip0_34_977">
<rect width="32" height="32" fill="white" transform="translate(8 8)"/>
</clipPath>
</defs>
</svg>
