<svg width="16" height="16" viewBox="0 0 16 16" fill="none" xmlns="http://www.w3.org/2000/svg">
<path d="M7.49609 0.813568C7.6641 0.395507 8.25582 0.395504 8.42383 0.813568L9.84863 4.36044C10.0632 4.8947 10.5643 5.25896 11.1387 5.29794L14.9521 5.55673C15.4018 5.58722 15.5851 6.15056 15.2393 6.43954L12.3057 8.88974C11.8638 9.25891 11.672 9.84894 11.8125 10.4073L12.7451 14.1134C12.855 14.5503 12.3768 14.8984 11.9951 14.6593L8.75781 12.627C8.27017 12.3209 7.64975 12.3209 7.16211 12.627L3.9248 14.6593C3.54317 14.8984 3.06489 14.5503 3.1748 14.1134L4.10742 10.4073C4.24789 9.84894 4.05611 9.25891 3.61426 8.88974L0.680664 6.43954C0.334862 6.15056 0.518125 5.58722 0.967773 5.55673L4.78125 5.29794C5.35566 5.25896 5.85673 4.8947 6.07129 4.36044L7.49609 0.813568Z" fill="#99CCFF" stroke="#007BFF"/>
</svg>
