<svg width="48" height="48" viewBox="0 0 48 48" fill="none" xmlns="http://www.w3.org/2000/svg">
<rect width="48" height="48" rx="10" fill="#007BFF"/>
<path d="M20.1797 35.6978V31.6208C20.1797 30.5801 21.0296 29.7364 22.078 29.7364H25.9102C26.4136 29.7364 26.8964 29.9349 27.2524 30.2883C27.6084 30.6417 27.8084 31.121 27.8084 31.6208V35.6978C27.8052 36.1305 27.9761 36.5465 28.2832 36.8536C28.5903 37.1606 29.0081 37.3333 29.444 37.3333H32.0585C33.2796 37.3365 34.4517 36.8571 35.3163 36.0011C36.1808 35.145 36.6667 33.9826 36.6667 32.7704V21.1558C36.6667 20.1766 36.2295 19.2478 35.4729 18.6196L26.5787 11.5678C25.0316 10.3314 22.8149 10.3713 21.3139 11.6626L12.6227 18.6196C11.8304 19.2293 11.3568 20.1608 11.3334 21.1558V32.7586C11.3334 35.2851 13.3965 37.3333 15.9416 37.3333H18.4964C19.4017 37.3333 20.1374 36.6083 20.1439 35.7096L20.1797 35.6978Z" fill="white"/>
</svg>
