<?xml version="1.0" encoding="UTF-8"?>
<svg xmlns="http://www.w3.org/2000/svg" viewBox="0 0 24 24">
  <defs>
    <style>
      .cls-1 {
        fill: #323232;
      }

      .cls-1, .cls-2 {
        stroke-width: 0px;
      }

      .cls-2 {
        fill: none;
      }
    </style>
  </defs>
  <g id="_Слой_1" data-name="Слой 1">
    <rect class="cls-2" width="24" height="24"/>
  </g>
  <g id="_Слой_2" data-name="Слой 2">
    <g>
      <path class="cls-1" d="M12,15c.94,0,1.77-.44,2.31-1.11l-4.2-4.2c-.67.55-1.11,1.38-1.11,2.31,0,1.66,1.34,3,3,3Z"/>
      <path class="cls-1" d="M10.5,7.25c.48-.15.97-.25,1.5-.25,2.76,0,5,2.24,5,5,0,.53-.1,1.02-.25,1.5l3.05,3.05c1.4-1.23,2.51-2.78,3.21-4.55-1.73-4.39-6-7.5-11-7.5-1.28,0-2.51.21-3.67.59l2.17,2.17Z"/>
      <path class="cls-1" d="M20.62,19.37L3.89,2.64l-1.41,1.41,2.67,2.67c-1.84,1.32-3.3,3.14-4.14,5.28,1.73,4.39,6,7.5,11,7.5,1.74,0,3.38-.38,4.87-1.06l2.34,2.34,1.41-1.41ZM12,17c-2.76,0-5-2.24-5-5,0-.98.29-1.88.78-2.65l6.87,6.87c-.77.49-1.67.78-2.65.78Z"/>
      <path class="cls-1" d="M12.27,9.03l2.7,2.7c-.13-1.44-1.26-2.57-2.7-2.7Z"/>
    </g>
  </g>
</svg>