<svg width="70" height="64" viewBox="0 0 70 64" fill="none" xmlns="http://www.w3.org/2000/svg">
<path d="M70 51.9469C70 52.6295 69.7809 52.8626 68.4029 53.6576C67.516 54.1675 62.4371 57.079 60.7186 58.0632C60.4071 58.2414 59.734 58.6389 59.2245 58.9459C56.3603 60.6758 51.5085 63.4666 50.9752 63.6914C49.5366 64.2973 50.1067 64.5193 39.8381 59.3434C37.853 58.3428 34.907 56.8624 33.2915 56.0537C30.0261 54.4225 29.7858 54.2498 29.7858 53.5863C29.7858 52.8215 29.8967 52.7529 35.3003 50.1622C36.4935 49.592 38.3809 48.6654 39.4949 48.1034L41.5249 47.0808L41.8918 45.9705C42.3485 44.5998 42.3775 44.8054 41.6173 43.9939C41.2635 43.6156 40.8808 43.1714 40.7673 43.0042L40.5614 42.7054L39.8381 42.8946C38.5578 43.2318 36.1134 43.1605 34.6324 42.741C33.5237 42.4258 33.4366 42.4148 33.3126 42.5875C33.2387 42.6889 32.9377 43.1495 32.6447 43.6128C31.0503 46.1213 27.967 48.627 25.1715 49.677C24.8178 49.8113 24.4773 49.984 24.4166 50.0635C24.2714 50.2417 24.3242 53.4767 24.4746 53.6274C24.5301 53.6878 25.6916 54.0277 27.0511 54.3868C29.7568 55.1024 30.3349 55.3409 30.6913 55.8919C31.1559 56.6074 30.8022 56.9446 29.3212 57.1996L28.495 57.3394L28.4448 58.0166C28.3129 59.7355 26.7607 59.4695 23.1099 57.1064C20.7288 55.5629 20.581 55.1353 22.0698 54.0551C22.3628 53.8413 22.5239 50.642 22.2414 50.642C22.1648 50.642 21.6844 50.7187 21.1749 50.812C20.6628 50.9052 19.7336 50.9901 19.108 51.0011C17.9967 51.0203 17.9544 51.0285 17.408 51.3931C17.1018 51.5988 16.5448 51.8729 16.1752 52.0018L15.5047 52.2348L15.4757 53.8331C15.4414 55.7631 15.1061 55.4368 18.287 56.5828C22.1701 57.9809 22.7271 58.3181 22.5291 59.1378C22.4367 59.5134 22.1569 59.6505 21.2937 59.73L20.5652 59.7985L20.4807 60.2207C20.3197 61.0212 19.8339 61.3283 19.042 61.1309C18.551 61.0102 18.5484 61.0102 18.1999 61.394C17.3737 62.3042 16.1594 61.5092 12.7963 57.863C12.1786 57.1914 12.3238 56.6403 13.3401 55.7905C13.6595 55.5246 13.5117 52.0511 13.1712 51.8318C13.0365 51.7441 12.5086 51.2451 11.9965 50.7215C11.1834 49.8853 10.9511 49.7154 10.0906 49.3178C7.29242 48.0239 4.848 45.8937 0.975468 41.3785C-0.515999 39.6377 -0.304818 38.7549 1.66181 38.4863C3.38293 38.2532 5.52906 36.4658 8.60966 32.6963C10.6581 30.1905 11.9859 28.8637 13.9024 27.4025C18.1207 24.1895 18.2897 23.7947 17.6297 18.7284C17.5981 18.4844 17.569 18.2432 17.5426 18.0074C17.0569 13.5964 17.474 9.76928 18.6724 6.78929C18.6909 6.73995 18.7094 6.69334 18.7305 6.64673C19.211 5.53095 19.8181 4.51935 20.5493 3.60369C21.9457 1.85737 23.952 0.659345 26.0691 0.193294C26.1245 0.182328 26.1799 0.171364 26.238 0.160398C28.8382 -0.327585 31.3275 0.324885 33.2756 1.75045C33.3363 1.79432 33.3944 1.83818 33.4551 1.88479C33.5449 1.95332 33.632 2.0246 33.7191 2.09588C35.7438 3.79286 37.0558 6.33695 37.1957 9.15245V9.15793L37.2036 9.31419C37.2062 9.42934 37.2089 9.54448 37.2089 9.65962V10.7507L39.2837 13.1605C41.7915 16.0719 41.9657 16.4311 41.4457 17.6181C40.8069 19.0793 39.5187 19.1534 35.3003 17.9745C34.2814 17.6894 32.6342 17.2837 31.6416 17.0726C30.649 16.8642 29.5483 16.5956 29.1972 16.4777C28.8434 16.3625 28.5082 16.2666 28.4475 16.2666C28.1413 16.2666 28.5372 18.6434 29.1708 20.5707C29.5509 21.7331 29.7146 22.0484 31.3855 24.8337C32.0719 25.9824 32.8295 27.2599 33.0644 27.6711C34.2101 29.6752 37.9295 31.8738 41.9525 32.9211C43.4704 33.3186 44.1567 33.5489 45.0859 33.9848C45.8435 34.3384 45.8092 34.4179 45.5637 32.8525C44.5764 26.5636 47.4828 18.5749 52.9049 12.6752C57.2605 7.93797 61.4709 6.50692 62.3315 9.4732C63.4613 13.3798 60.9245 20.8723 57.7409 23.0325C56.8777 23.6165 56.9622 23.6741 58.3243 23.4273C59.5967 23.197 59.7234 23.4959 59.0793 25.223C58.0128 28.0824 54.7422 31.4215 49.3518 35.1471C48.6839 35.6077 48.1401 36.0107 48.1401 36.0381C48.1401 36.1807 48.4147 36.6029 48.7657 37.0031C50.0117 38.4232 50.2704 40.8851 49.3702 42.763C49.2013 43.1139 49.101 43.4346 49.1432 43.4785C49.2303 43.5635 53.0052 44.9616 56.2864 46.124C57.4479 46.5352 59.8607 47.4016 61.6478 48.0458C63.4349 48.69 65.8925 49.5755 67.1121 50.0087C69.7439 50.9518 70 51.1217 70 51.9469ZM66.695 52.2019C66.8719 51.9798 67.1042 52.0703 59.4832 49.3562C52.8627 47.0013 49.1247 45.5949 48.2536 45.1343C47.7468 44.8684 47.5778 44.8575 47.2637 45.074C46.8466 45.3591 46.1471 45.5922 45.2337 45.7512C44.3283 45.9074 44.3864 45.817 43.539 48.3391C42.0238 52.8516 39.9199 54.4088 40.7145 50.4281C40.9573 49.2246 40.9547 49.2493 40.8016 49.2493C40.6775 49.2493 33.3442 53.2573 33.1093 53.452C32.8849 53.6384 33.1119 53.7864 35.2238 54.8227C36.3457 55.371 39.3022 56.8295 41.7968 58.0659C49.7926 62.0191 49.1511 61.7258 49.8032 61.7258C50.3206 61.7258 50.5423 61.6408 51.8199 60.9609C55.2252 59.1515 66.402 52.5692 66.695 52.2019ZM45.6376 43.632C47.4775 43.2784 48.5044 40.6301 47.5594 38.6809C47.2602 38.0632 46.7877 38.7476 46.1418 40.7343C45.1044 43.9254 45.1387 43.7252 45.6376 43.632ZM43.1589 42.3709C43.3463 42.1187 45.1677 36.5151 45.0991 36.4C44.8879 36.0463 43.3041 35.4295 41.9525 35.1746C40.2314 34.8511 38.2304 34.0643 36.1635 32.8991C34.7829 32.1233 34.7908 32.126 34.8832 32.5181C35.2 33.8724 35.0416 37.2937 34.5691 39.2511C34.4213 39.868 34.3236 40.3998 34.3579 40.4327C34.7856 40.8768 38.1064 41.1619 39.2652 40.8549C40.0994 40.6328 40.1997 40.5396 40.1997 40.0187C40.1997 38.4863 41.8152 38.7248 42.0555 40.2902C42.227 41.4169 42.9107 42.7054 43.1589 42.3709ZM35.1657 10.1092L35.1102 9.25114C35.1023 9.13325 35.0918 9.01811 35.0786 8.90297C35.0707 8.81524 35.0601 8.73026 35.0469 8.64527C35.0363 8.56303 35.0231 8.48078 35.0073 8.39854C34.9677 8.16003 34.9175 7.92426 34.8542 7.69672C34.8357 7.61996 34.8146 7.5432 34.7908 7.46644C34.7829 7.43628 34.775 7.40612 34.7644 7.37597C34.7328 7.27179 34.6984 7.16762 34.6588 7.06344C34.6588 7.05796 34.6588 7.05521 34.6588 7.05247C34.6219 6.94281 34.5797 6.8359 34.5348 6.72898C34.4925 6.61932 34.445 6.50966 34.3922 6.40274C33.5818 4.64271 32.1379 3.26923 30.2848 2.58386C29.9812 2.47146 29.6248 2.38648 29.2368 2.33165C28.2073 2.12604 27.1038 2.13426 25.9793 2.39744C25.7549 2.44953 25.5332 2.51807 25.3141 2.6058C25.1214 2.66885 24.9472 2.74013 24.7914 2.81963C22.6426 3.91896 21.0984 5.94766 20.2246 8.70833C20.2167 8.72752 20.2114 8.74671 20.2035 8.76864C20.0002 9.35532 19.8313 9.96667 19.6993 10.5972C19.2479 12.7685 19.203 15.0411 19.562 18.2021C19.5832 18.4022 19.6069 18.6051 19.6333 18.8134C20.2721 23.929 19.6993 25.5246 16.2914 28.1427C14.3089 29.6669 13.7255 30.1604 12.7356 31.1528C12.1179 31.7696 10.9327 33.0938 10.1038 34.0972C7.45609 37.2965 6.06229 38.6261 4.30157 39.6349C3.33806 40.186 3.3407 40.1805 4.08511 40.4684C7.35842 41.7404 10.6555 41.5375 13.8971 39.8652C14.4963 39.5554 15.0058 39.3224 15.0296 39.3471C15.2038 39.528 13.3296 41.299 12.3053 41.9213C11.6955 42.2942 11.7219 42.3271 12.5403 42.2393C20.6813 41.3676 26.3278 33.1897 22.0223 28.5018C21.5471 27.9837 21.9167 28.0412 22.8195 28.6279C27.7691 31.8437 25.3959 38.8783 18.0732 42.6944C14.1928 44.7176 9.35144 44.7313 5.20437 42.7301C4.05871 42.179 4.03231 42.2064 4.90344 43.07C7.30034 45.4441 9.20889 46.7957 11.4844 47.7387C12.4505 48.139 12.5508 48.2075 13.0445 48.8408C14.3617 50.5214 15.0665 50.6447 16.6768 49.4796L17.3631 48.9806L19.1159 48.9148C25.813 48.6626 31.3512 44.3804 32.6685 38.4342C33.6637 33.9519 33.0248 31.3776 29.5113 25.7082C27.3335 22.1937 26.4545 19.6523 26.3198 16.4804C26.2169 14.0542 26.9639 13.6704 30.0789 14.5532C30.9104 14.7889 31.7709 14.9945 31.99 15.0082L32.386 15.0357L32.8717 14.0707C33.1383 13.5416 33.7666 12.4313 34.2629 11.6088L35.1683 10.1092H35.1657Z" fill="#3389D5"/>
<path d="M58.4511 52.0374C58.4511 52.106 58.459 52.1608 58.4484 52.2156C58.3243 52.413 58.0261 52.6405 57.5113 52.9558C57.4691 52.9805 57.4268 53.0052 57.3846 53.0326C57.1734 53.1559 56.9279 53.2958 56.6455 53.452C56.5108 53.526 56.3788 53.6001 56.2495 53.6741C56.1492 53.7262 56.0515 53.781 55.9538 53.8386C55.5288 54.0716 55.125 54.2937 54.7475 54.5048C54.0031 54.9105 53.1082 55.4012 52.0338 55.9879C51.7408 56.1496 51.4689 56.2977 51.2181 56.4347C51.1204 56.4868 51.0254 56.5362 50.933 56.5883C50.8248 56.6458 50.7218 56.6979 50.6242 56.7528C50.5502 56.7884 50.4816 56.8268 50.413 56.8624C48.9242 57.6383 48.4041 57.8247 48.1349 57.7698C48.1137 57.7644 48.0926 57.7589 48.0715 57.7507C48.0557 57.7452 48.0398 57.737 48.024 57.726C48.0134 57.7205 48.0029 57.7123 47.9897 57.7041C47.9712 57.6903 47.9501 57.6739 47.9316 57.6547C47.3482 57.1064 47.3245 57.1256 52.4694 54.354C53.52 53.7892 55.0986 52.9229 55.975 52.424C56.1439 52.328 56.3023 52.2403 56.4475 52.1635C57.1972 51.7578 57.6934 51.5467 57.9997 51.5165C58.0155 51.5165 58.0313 51.5111 58.0472 51.5165C58.1686 51.5165 58.2584 51.5577 58.327 51.6289C58.3534 51.6564 58.3771 51.681 58.3956 51.7084C58.4352 51.7907 58.4511 51.9031 58.4511 52.0402V52.0374Z" fill="#3389D5"/>
<path d="M58.3956 51.7057C58.3771 51.6782 58.3533 51.6536 58.3269 51.6262C58.2583 51.5549 58.1685 51.5165 58.0471 51.5138C58.2293 51.5083 58.3401 51.5713 58.3956 51.7057Z" fill="#E5F4FB"/>
<path d="M57.5112 52.9558C58.026 52.6405 58.3243 52.413 58.4483 52.2156C58.4219 52.3609 58.2688 52.5117 57.5112 52.9558Z" fill="#E5F4FB"/>
<path d="M57.3845 53.0325C57.4268 53.0051 57.469 52.9804 57.5112 52.9557C57.4716 52.9804 57.4294 53.0051 57.3845 53.0325Z" fill="#E5F4FB"/>
<path d="M56.2495 53.6741C56.1545 53.7262 56.0542 53.781 55.9539 53.8386C56.0515 53.781 56.1492 53.7262 56.2495 53.6741Z" fill="#E5F4FB"/>
<path d="M54.3832 50.154C54.7527 50.7379 55.0695 50.5268 48.5124 54.0578C44.4682 56.2373 44.2201 56.3168 44.2201 55.4478C44.2201 55.4286 44.2201 55.4066 44.2227 55.3902C44.2491 55.1736 44.4709 54.957 45.8647 54.1538C45.9571 54.1017 46.0547 54.0469 46.1603 53.9866C46.5589 53.7672 47.042 53.5013 47.6227 53.1833C48.6047 52.646 49.4363 52.1881 50.1411 51.8016C50.3523 51.6865 50.5502 51.5795 50.7403 51.4754C50.8485 51.4178 50.9541 51.3602 51.0544 51.3054C51.3422 51.1491 51.6035 51.0066 51.8411 50.8805C52.7888 50.376 53.3458 50.0991 53.6916 49.9758C53.6995 49.973 53.71 49.9675 53.718 49.9675C54.0875 49.8579 54.2459 49.9374 54.3832 50.154Z" fill="#3389D5"/>
<path d="M52.0575 50.7626C52.8547 50.3294 53.3563 50.0799 53.6915 49.9758C53.3457 50.0991 52.7887 50.376 51.8411 50.8805C51.9123 50.8421 51.9836 50.801 52.0575 50.7626Z" fill="#E5F4FB"/>
<path d="M50.7404 51.4754C50.8433 51.4206 50.9489 51.363 51.0545 51.3054C50.9542 51.3602 50.8486 51.4178 50.7404 51.4754Z" fill="#E5F4FB"/>
<path d="M50.413 56.8624C50.4816 56.8268 50.5502 56.7884 50.6241 56.7527C50.5529 56.7911 50.4816 56.8295 50.413 56.8624Z" fill="#E5F4FB"/>
<path d="M50.2018 48.8792C50.2018 48.9395 50.2071 48.9834 50.1912 49.0327C49.9774 49.274 49.3729 49.6359 48.0662 50.3623C47.5858 50.6283 47.0077 50.9463 46.3213 51.3246C42.5518 53.3999 42.4145 53.4575 42.103 53.1011C41.678 52.6131 41.8733 52.4596 45.1994 50.6283C46.9021 49.6907 48.5493 48.7833 48.8608 48.6078C49.2752 48.3775 49.6131 48.2925 49.8481 48.3446C49.9061 48.372 49.9589 48.4104 50.0144 48.4625C50.0619 48.5091 50.1094 48.5502 50.1464 48.5914C50.1833 48.6709 50.2018 48.7668 50.2018 48.8792Z" fill="#3389D5"/>
<path d="M50.1463 48.5913C50.1094 48.5502 50.0618 48.5091 50.0143 48.4625C49.9589 48.4104 49.9061 48.372 49.848 48.3446C49.9906 48.3748 50.0935 48.457 50.1463 48.5913Z" fill="#E5F4FB"/>
<path d="M50.4129 56.8624C48.9505 57.6409 48.4278 57.8466 48.1348 57.7698C48.404 57.8246 48.9241 57.6382 50.4129 56.8624Z" fill="#E5F4FB"/>
<path d="M50.1912 49.0327C50.1357 49.1972 49.819 49.3946 48.0662 50.3623C49.3728 49.6358 49.9774 49.274 50.1912 49.0327Z" fill="#E5F4FB"/>
<path d="M50.141 51.8016C49.4362 52.1882 48.6047 52.646 47.6227 53.1833C47.042 53.5014 46.5589 53.7673 46.1603 53.9866C47.0367 53.4904 48.3038 52.7968 50.141 51.8016Z" fill="#E5F4FB"/>
<path d="M37.2089 9.65964C37.2089 9.54449 37.2089 9.42935 37.2036 9.31421C37.2063 9.42935 37.2089 9.54449 37.2089 9.65964Z" fill="#E5F4FB"/>
<path d="M37.1957 9.15245C37.0558 6.33695 35.7438 3.79286 33.7191 2.09589C35.7201 3.749 37.0558 6.25471 37.1957 9.15245Z" fill="#E5F4FB"/>
<path d="M31.8 10.2627C31.9373 9.94198 31.9664 9.57462 31.8924 9.23193C31.9875 9.61026 31.9426 9.96391 31.8 10.2627Z" fill="#E5F4FB"/>
<path d="M31.8924 9.23194C31.9663 9.57463 31.9373 9.94198 31.8 10.2627C31.8 10.2682 31.7973 10.2737 31.7947 10.2792C31.6152 10.6548 31.2852 10.9399 30.9077 11.0632C30.8655 11.077 30.8206 11.0879 30.7784 11.0961C30.034 11.2442 29.3793 10.7343 29.1629 10.0681C29.0494 9.6459 29.1233 9.1634 29.3397 8.78508C29.345 8.78234 29.345 8.7796 29.345 8.77686C29.4057 8.69187 29.4744 8.60963 29.5562 8.53286C29.836 8.26146 30.2003 8.12164 30.5619 8.12164H30.5751C31.082 8.16002 31.5703 8.45336 31.7789 8.90845C31.8079 8.9715 31.8317 9.03181 31.8528 9.09487C31.8581 9.10309 31.8607 9.11132 31.8607 9.11954C31.8739 9.15518 31.8845 9.19356 31.8924 9.23194Z" fill="#3389D5"/>
<path d="M31.8924 9.23197C31.8845 9.19359 31.8739 9.15521 31.8607 9.11957C31.8739 9.15795 31.8845 9.19359 31.8924 9.23197Z" fill="#E5F4FB"/>
<path d="M30.7784 11.0962C30.3059 11.2003 29.7805 11.0523 29.3846 10.5287C29.2816 10.3916 29.2077 10.2353 29.1628 10.0681C29.3793 10.7343 30.034 11.2442 30.7784 11.0962Z" fill="#E5F4FB"/>
<path d="M29.9917 8.2039C30.1739 8.13536 30.3692 8.10794 30.5619 8.12165C30.2003 8.12165 29.836 8.26147 29.5561 8.53287C29.4743 8.60964 29.4057 8.69188 29.345 8.77687C29.4981 8.51642 29.7172 8.30807 29.9917 8.2039Z" fill="#E5F4FB"/>
<path d="M25.9766 2.39741C27.1012 2.13423 28.2046 2.12601 29.2341 2.33162C27.9696 2.1452 26.3884 2.24938 25.3114 2.60577C25.5305 2.51804 25.7522 2.4495 25.9766 2.39741Z" fill="#E5F4FB"/>
<path d="M26.069 0.193298C23.9519 0.65935 21.9457 1.85738 20.5493 3.6037C19.8181 4.51935 19.2109 5.53096 18.7305 6.64674C20.1665 3.18151 22.6796 0.889634 26.069 0.193298Z" fill="#E5F4FB"/>
<path d="M19.6967 10.5972C19.8287 9.9667 19.9976 9.35535 20.2009 8.76868C19.3958 11.3374 19.1661 14.534 19.5594 18.2021C19.2004 15.0412 19.2453 12.7685 19.6967 10.5972Z" fill="#E5F4FB"/>
</svg>
